<svg id="Logo_reanmo" data-name="Logo reanmo" xmlns="http://www.w3.org/2000/svg" width="135.021" height="19.941" viewBox="0 0 135.021 19.941">
  <path id="Pfad_446" data-name="Pfad 446" d="M72,131.777V112H87.867v2.472H74.441v17.305Z" transform="translate(-72 -112)" fill="#00acdf"/>
  <path id="Pfad_447" data-name="Pfad 447" d="M104,159.382V144h11.528v2.472h-9.086v12.91Z" transform="translate(-99.661 -139.606)" fill="#00acdf"/>
  <path id="Pfad_448" data-name="Pfad 448" d="M136,186.987V176h7.188v2.472h-4.747v8.515Z" transform="translate(-127.32 -167.21)" fill="#00acdf"/>
  <g id="Gruppe_296" data-name="Gruppe 296" transform="translate(23.27 2.773)">
    <path id="Pfad_449" data-name="Pfad 449" d="M246.983,149.086h-3.4V132.462h3.4v2.414a5.348,5.348,0,0,1,4.927-2.685v3.56h-.866c-2.508,0-4.061,1.056-4.061,4.586Z" transform="translate(-243.579 -132.19)" fill="#FFFFFF"/>
    <path id="Pfad_450" data-name="Pfad 450" d="M327.976,149.358c-4.718,0-8.212-3.379-8.212-8.6s3.345-8.569,8.212-8.569c4.689,0,8,3.289,8,8.177a10.724,10.724,0,0,1-.119,1.69H323.288a4.545,4.545,0,0,0,4.688,4.405,3.98,3.98,0,0,0,3.882-2.323h3.673A7.524,7.524,0,0,1,327.976,149.358Zm-4.659-10.077h9.108a4.29,4.29,0,0,0-4.6-4.194A4.5,4.5,0,0,0,323.318,139.28Z" transform="translate(-309.432 -132.19)" fill="#FFFFFF"/>
    <path id="Pfad_451" data-name="Pfad 451" d="M463.387,132.19a6.978,6.978,0,0,1,5.7,2.685v-2.414h3.434v16.625h-3.434v-2.474a7.057,7.057,0,0,1-5.763,2.746c-4.27,0-7.7-3.53-7.7-8.659S459.057,132.19,463.387,132.19Zm.717,2.987c-2.538,0-4.987,1.931-4.987,5.521s2.449,5.672,4.987,5.672c2.568,0,4.987-2.022,4.987-5.612C469.091,137.2,466.672,135.177,464.1,135.177Z" transform="translate(-426.866 -132.19)" fill="#FFFFFF"/>
    <path id="Pfad_452" data-name="Pfad 452" d="M610.962,139.793c0-3.047-1.643-4.616-4.121-4.616-2.508,0-4.151,1.569-4.151,4.616v9.293h-3.4V132.462h3.4v1.9a6.3,6.3,0,0,1,4.9-2.172c3.852,0,6.749,2.444,6.749,7.09v9.806h-3.374Z" transform="translate(-551.044 -132.19)" fill="#FFFFFF"/>
    <path id="Pfad_453" data-name="Pfad 453" d="M752.516,139.793c0-3.047-1.643-4.616-4.121-4.616-2.508,0-4.151,1.569-4.151,4.616v9.293h-3.374v-9.293c0-3.047-1.643-4.616-4.121-4.616-2.508,0-4.151,1.569-4.151,4.616v9.293h-3.4V132.462h3.4v1.9a6.238,6.238,0,0,1,4.868-2.172,6.333,6.333,0,0,1,5.913,3.289,6.431,6.431,0,0,1,5.734-3.289c3.852,0,6.779,2.444,6.779,7.09v9.806h-3.375Z" transform="translate(-663.334 -132.19)" fill="#FFFFFF"/>
    <path id="Pfad_454" data-name="Pfad 454" d="M952.071,149.358c-4.688,0-8.242-3.379-8.242-8.6a8.393,8.393,0,1,1,16.783,0A8.284,8.284,0,0,1,952.071,149.358Zm0-2.987c2.538,0,5.047-1.84,5.047-5.612s-2.419-5.582-4.957-5.582c-2.568,0-4.868,1.81-4.868,5.582S949.5,146.371,952.071,146.371Z" transform="translate(-848.861 -132.19)" fill="#FFFFFF"/>
  </g>
</svg>
