<svg xmlns="http://www.w3.org/2000/svg" width="21.338" height="21.338" viewBox="0 0 21.338 21.338">
  <g id="Gruppe_3963" data-name="Gruppe 3963" transform="translate(-321.662 -27.217)">
    <path id="moon" d="M4.234,0A4.233,4.233,0,1,1,0,4.234,4.233,4.233,0,0,1,4.234,0Z" transform="matrix(0.966, 0.259, -0.259, 0.966, 329.059, 32.701)" fill="#aeb8c5"/>
    <g id="Gruppe_145" data-name="Gruppe 145" transform="translate(338.369 35.571)">
      <ellipse id="Ellipse_2" data-name="Ellipse 2" cx="1.822" cy="1.822" rx="1.822" ry="1.822" transform="translate(1.186 0) rotate(19)" fill="#aeb8c5"/>
    </g>
    <g id="Gruppe_314" data-name="Gruppe 314" transform="translate(321.662 35.571)">
      <ellipse id="Ellipse_2-2" data-name="Ellipse 2" cx="1.822" cy="1.822" rx="1.822" ry="1.822" transform="translate(1.186 0) rotate(19)" fill="#aeb8c5"/>
    </g>
    <g id="Gruppe_315" data-name="Gruppe 315" transform="translate(329.737 43.924)">
      <ellipse id="Ellipse_2-3" data-name="Ellipse 2" cx="1.822" cy="1.822" rx="1.822" ry="1.822" transform="translate(1.186 0) rotate(19)" fill="#aeb8c5"/>
    </g>
    <g id="Gruppe_316" data-name="Gruppe 316" transform="translate(329.737 27.217)">
      <ellipse id="Ellipse_2-4" data-name="Ellipse 2" cx="1.822" cy="1.822" rx="1.822" ry="1.822" transform="translate(1.186 0) rotate(19)" fill="#aeb8c5"/>
    </g>
    <g id="Gruppe_317" data-name="Gruppe 317" transform="translate(335.863 29.532)">
      <ellipse id="Ellipse_2-5" data-name="Ellipse 2" cx="1.822" cy="1.822" rx="1.822" ry="1.822" transform="translate(1.186 0) rotate(19)" fill="#aeb8c5"/>
    </g>
    <g id="Gruppe_318" data-name="Gruppe 318" transform="translate(335.863 41.609)">
      <ellipse id="Ellipse_2-6" data-name="Ellipse 2" cx="1.822" cy="1.822" rx="1.822" ry="1.822" transform="translate(1.186 0) rotate(19)" fill="#aeb8c5"/>
    </g>
    <g id="Gruppe_319" data-name="Gruppe 319" transform="translate(323.612 41.608)">
      <ellipse id="Ellipse_2-7" data-name="Ellipse 2" cx="1.822" cy="1.822" rx="1.822" ry="1.822" transform="translate(1.186 0) rotate(19)" fill="#aeb8c5"/>
    </g>
    <g id="Gruppe_320" data-name="Gruppe 320" transform="translate(324.169 29.828)">
      <ellipse id="Ellipse_2-8" data-name="Ellipse 2" cx="1.822" cy="1.822" rx="1.822" ry="1.822" transform="translate(1.186 0) rotate(19)" fill="#aeb8c5"/>
    </g>
  </g>
</svg>
